<svg width="482" height="571" viewBox="0 0 482 571" fill="none" xmlns="http://www.w3.org/2000/svg">
<path fill-rule="evenodd" clip-rule="evenodd" d="M283 0.130183C291.52 0.0501828 302.1 0.480183 306.5 1.09018C310.9 1.69018 318.77 3.10018 324 4.22018C329.23 5.34018 337.32 7.61018 342 9.26018C346.68 10.9102 353.65 13.7002 357.5 15.4602C361.35 17.2202 368.77 21.2702 374 24.4602C379.23 27.6502 386.88 32.8502 391 36.0102C395.13 39.1702 402.1 45.3002 406.5 49.6402C410.9 53.9702 416.59 59.9802 419.14 63.0102C421.69 66.0302 425.92 71.6502 428.54 75.5002C431.16 79.3502 435.17 86.3202 437.45 91.0002C439.73 95.6802 442.39 102.2 443.38 105.5C444.36 108.8 445.59 112.85 446.12 114.5C446.64 116.15 447.96 123.01 449.04 129.75C450.12 136.49 451 146.27 451 151.5C451 156.73 450.57 164.26 450.05 168.25C449.53 172.24 448.92 182.48 448.69 191C448.47 199.52 448.63 210.55 449.05 215.5C449.64 222.41 450.92 227.53 454.53 237.5C457.12 244.65 461.26 254.77 463.74 260C466.22 265.23 470.03 273.32 472.2 278C474.37 282.68 476.97 288.98 477.99 292C479 295.02 480.32 300.2 480.92 303.5C481.52 306.8 482.01 312.54 482.01 316.25C482 319.96 481.35 326.26 480.56 330.25C479.77 334.24 477.96 340.88 476.53 345C475.1 349.13 473.05 355.99 471.97 360.25C470.88 364.51 470 370.59 470.01 373.75C470.01 376.91 470.44 381.08 470.97 383C471.49 384.92 473.79 389.2 476.06 392.5C479.97 398.16 480.1 398.57 478.35 399.77C477.33 400.46 475.94 401.03 475.25 401.02C474.56 401.01 472.61 399.76 470.9 398.25C469.2 396.74 466.74 393.25 465.43 390.5C464.13 387.75 462.77 382.58 462.42 379C462.06 375.42 462.27 369.24 462.89 365.25C463.5 361.26 466.05 351.81 468.55 344.25C472.09 333.57 473.23 328.49 473.67 321.5C473.97 316.55 473.78 309.35 473.25 305.5C472.71 301.65 470.69 294.67 468.75 290C466.82 285.32 461.2 272.73 456.26 262C451.32 251.27 446.36 239.57 445.24 236C444.12 232.43 442.66 227.02 442 224C441.17 220.16 440.99 211.85 441.4 196.5C441.72 184.4 442.26 167.07 442.6 158C443 147.32 442.8 138.5 442.03 133C441.37 128.32 440 121.57 438.97 118C437.94 114.43 436.79 110.38 436.41 109C436.03 107.63 433.46 101.77 430.69 96.0002C427.93 90.2302 423.52 82.3502 420.89 78.5002C418.27 74.6502 413.22 68.1302 409.66 64.0002C406.1 59.8802 400.61 54.2502 397.45 51.5002C394.29 48.7502 388.51 44.0802 384.61 41.1202C380.7 38.1702 373.45 33.3602 368.5 30.4502C363.55 27.5302 356.8 23.9302 353.5 22.4502C350.2 20.9702 345.02 18.8902 342 17.8302C338.98 16.7602 331.55 14.5802 325.5 12.9802C319.45 11.3802 310.45 9.61018 305.5 9.04018C300.55 8.48018 290.65 8.01018 283.5 8.00018C276.35 8.00018 265.77 8.66018 260 9.49018C254.23 10.3102 246.12 11.8502 242 12.9102C237.87 13.9702 232.02 15.5702 229 16.4802C225.98 17.3802 220.57 19.1902 217 20.4902C213.43 21.7902 209.71 23.1102 208.75 23.4302C207.29 23.9102 207.95 25.1302 212.75 30.8202C215.91 34.5702 220.17 40.9802 222.21 45.0702C224.25 49.1602 226.65 55.6502 227.54 59.5002C228.53 63.8102 229.12 70.6402 229.08 77.2502C229.03 83.1602 228.55 90.1402 228 92.7502C227.45 95.3602 226.1 98.5102 225 99.7502C223.55 101.38 221.55 102.12 217.75 102.45C214.86 102.7 206.87 103.37 200 103.93C193.12 104.49 185.02 105.65 182 106.5C178.98 107.34 174.7 108.56 172.5 109.19C170.3 109.83 162.65 113.13 155.5 116.52C148.35 119.92 138.9 125.28 134.5 128.45C130.1 131.61 122.9 137.87 118.5 142.35C114.1 146.83 109.05 152.3 107.28 154.5C105.5 156.7 101.68 162.77 98.7899 168C95.8899 173.23 92.0099 181.55 90.1599 186.5C88.3199 191.45 86.0599 199.91 85.1499 205.29C84.2399 210.67 83.6099 215.29 83.7499 215.54C83.8899 215.79 85.4599 215.22 87.2499 214.26C89.4499 213.07 93.3999 212.4 99.4999 212.17C105.73 211.93 110.5 212.34 115 213.52C118.57 214.45 123.97 216.31 127 217.66C130.03 219 133.97 221.54 135.77 223.3C137.57 225.06 139.03 227.51 139.02 228.75C139.01 229.99 138.21 231.29 137.25 231.65C136.29 232.01 134.6 231.71 133.5 230.98C132.4 230.26 128.57 228.18 125 226.36C121.43 224.54 116.25 222.37 113.5 221.54C110.75 220.7 105.12 220.04 101 220.05C96.8699 220.07 91.4699 220.5 88.9999 221C86.5299 221.51 84.0499 222.4 83.4999 223C82.8332 223.714 82.9032 227.477 83.7099 234.29C84.3699 239.9 85.7199 248.42 86.7099 253.22C88.2999 260.95 88.7799 262.02 90.9999 262.67C92.3699 263.07 102.15 263.42 112.71 263.45C129.39 263.49 132.16 263.72 133.71 265.2C135.31 266.72 135.34 267.08 134 268.52C133.18 269.41 130.25 270.79 127.5 271.58C124.75 272.37 118.9 273.02 114.5 273.01C110.1 273 103.01 272.32 98.7499 271.5C94.4899 270.67 90.4399 270 89.7499 269.99C88.9165 269.99 88.2599 272.574 87.7799 277.74C87.3899 282.01 86.6299 287.52 86.1099 290C85.5799 292.48 84.6399 296.3 83.9999 298.5C83.3699 300.7 82.2099 305.88 81.4099 310C80.6099 314.13 80.0099 321.77 80.0799 327C80.1499 332.23 80.8699 339.42 81.6799 343C82.4999 346.58 84.2999 352.88 85.6899 357C87.0799 361.13 91.0199 369.9 94.4399 376.5C97.8699 383.1 104.2 394.13 108.5 401C112.81 407.88 118.55 417.33 121.28 422C124 426.67 130.34 437.45 135.36 445.94C140.89 455.28 146.68 463.64 150 467.1C153.52 470.75 157.84 473.93 162 475.92C165.69 477.68 172.39 479.72 177.5 480.62C184.33 481.83 190.37 482.09 202.5 481.7C216.11 481.26 220.14 480.73 229.5 478.19C235.55 476.54 242.52 474.39 245 473.4C247.48 472.41 253.77 469.49 259 466.92C264.23 464.34 272.77 459.43 278 456C283.23 452.57 291.66 446.44 296.75 442.38C301.84 438.32 309.43 431.06 313.62 426.25C317.82 421.44 324.27 413.23 327.97 408C331.66 402.77 337.43 393.55 340.78 387.5C344.13 381.45 348.3 373.13 350.05 369C351.79 364.88 353.6 360.6 354.07 359.5C354.54 358.4 356.55 352.55 358.54 346.5C360.53 340.45 362.58 333.25 363.11 330.5C363.63 327.75 364.72 320.77 365.53 315C366.35 309.23 367.01 299.1 367.01 292.5C367.01 283.54 366.39 277.58 364.55 269C363.2 262.68 361.35 255.02 360.44 252C359.53 248.98 357.2 242.68 355.26 238C353.33 233.32 349.93 225.68 347.7 221C345.48 216.32 340.77 207.77 337.24 202C333.71 196.23 328.95 189.06 326.66 186.07C324.37 183.08 318.89 175.88 314.47 170.07C310.05 164.26 305.04 156.57 303.34 153C301.63 149.43 298.79 141.77 297.02 136C295.25 130.23 292.61 123.3 291.15 120.61C289.69 117.91 286.48 113.95 284 111.79C281.52 109.63 276.57 106.5 273 104.82C269.43 103.15 263.35 101.13 259.5 100.33C255.65 99.5302 249.57 98.8802 246 98.8802C242.43 98.8902 238.69 98.3502 237.7 97.7002C236.62 96.9802 236.12 95.8002 236.45 94.7502C236.77 93.7302 238.77 92.5302 241.25 91.8802C243.76 91.2202 248.77 91.0102 253.5 91.3602C257.9 91.6902 264.43 92.9102 268 94.0702C271.57 95.2302 276.98 97.4902 280 99.0902C283.02 100.69 287.64 104.02 290.25 106.5C292.86 108.97 296.35 113.7 298 117C299.65 120.3 302.4 127.39 304.12 132.75C305.84 138.11 308.16 144.52 309.29 147C310.41 149.48 313.37 154.43 315.86 158C318.34 161.57 324.24 169.68 328.97 176C333.69 182.32 340.21 191.77 343.45 197C346.69 202.23 351.47 211 354.09 216.5C356.7 222 359.82 228.98 361.03 232C362.24 235.02 364.55 241.32 366.16 246C367.77 250.68 369.93 258.1 370.95 262.5C371.97 266.9 373.37 274.77 374.06 280C374.86 286 375.09 293.92 374.69 301.5C374.34 308.1 373.34 317.33 372.47 322C371.59 326.67 369.77 334.77 368.42 340C367.07 345.23 364.57 353.55 362.87 358.5C361.16 363.45 356.98 373.13 353.57 380C350.17 386.88 344.29 397.23 340.5 403C336.71 408.77 331.62 416.2 329.18 419.5C326.74 422.8 319.29 430.9 312.62 437.5C305.38 444.68 295.67 452.94 288.5 458.05C281.9 462.75 273.91 467.92 270.75 469.55C267.59 471.17 265 472.95 264.99 473.5C264.98 474.05 266.8 480.58 269.02 488C271.25 495.42 274.14 505.77 275.45 511C276.75 516.23 278.38 523.88 279.07 528C279.76 532.13 280.37 541.58 280.41 549C280.46 556.42 280.16 564.19 279.75 566.25C279.3 568.5 278.3 570.21 277.25 570.53C276.29 570.81 274.82 570.82 274 570.54C272.76 570.12 272.38 566.42 271.83 549.26C271.3 532.72 270.66 526.16 268.67 517C267.3 510.67 264.56 499.88 262.57 493C260.58 486.13 258.55 479.6 258.06 478.5C257.18 476.54 257.05 476.55 251.33 479.25C248.12 480.76 242.57 482.92 239 484.06C235.43 485.19 228.23 487.03 223 488.14C217.77 489.26 209 490.31 203.5 490.49C198 490.67 188.77 490.22 183 489.49C177.23 488.75 169.8 487.32 166.5 486.3C163.2 485.29 158.7 483.51 156.5 482.36C154.3 481.2 149.85 477.83 146.6 474.88C143.36 471.92 138.59 466.35 136.01 462.5C133.43 458.65 126.68 447.4 121.02 437.5C115.36 427.6 107.93 415 104.51 409.5C101.08 404 95.8599 395.45 92.9099 390.5C89.9599 385.55 85.4399 376.77 82.8799 371C80.3199 365.23 77.4599 358.25 76.5399 355.5C75.6199 352.75 74.2199 347.46 73.4299 343.75C72.6399 340.04 71.9999 332.61 71.9999 327.25C71.9999 321.89 72.6499 314.13 73.4399 310C74.2299 305.88 76.0299 298 77.4299 292.5C79.4399 284.63 79.9799 280.05 79.9799 271C79.9799 263.1 79.3199 256.37 77.8599 249.5C76.3099 242.14 75.7299 235.8 75.6999 225.5C75.6699 215.66 76.1799 209.12 77.4199 203.5C78.3899 199.1 80.1099 192.57 81.2399 189C82.3799 185.43 85.4499 178 88.0799 172.5C90.7099 167 94.5699 159.93 96.6799 156.8C98.7799 153.66 103.64 147.58 107.47 143.3C111.31 139.01 117.61 132.73 121.47 129.34C125.34 125.95 131.65 121.05 135.5 118.44C139.35 115.83 147 111.56 152.5 108.95C158 106.34 165.88 103.04 170 101.63C174.13 100.21 181.1 98.3202 185.5 97.4302C189.9 96.5302 199.35 95.5102 219.5 94.5002L220.18 90.0002C220.55 87.5202 220.89 82.1302 220.93 78.0002C220.98 73.8802 220.53 67.8002 219.94 64.5002C219.36 61.2002 217.98 56.0202 216.89 53.0002C215.8 49.9802 213.24 45.0702 211.2 42.0902C209.17 39.1202 204.8 34.2502 201.5 31.2702C198.2 28.3002 192.57 24.4602 189 22.7502C183.33 20.0402 181.15 19.5802 172 19.1902C166.05 18.9302 158.47 19.2602 154.5 19.9502C150.65 20.6102 142.78 22.7202 137 24.6302C131.22 26.5402 123.12 29.9202 119 32.1402C114.88 34.3602 107.69 38.7202 103.02 41.8302C98.3599 44.9502 89.5599 52.4502 83.4599 58.5002C77.3699 64.5502 70.8199 71.3002 68.9099 73.5002C67.0099 75.7002 63.2099 80.4202 60.4699 83.9902C57.7399 87.5602 52.7799 94.9902 49.4599 100.49C46.1399 106 42.1099 113.88 40.5199 118C38.9299 122.13 37.3099 125.95 36.9299 126.5C36.5499 127.05 35.1999 131.55 33.9399 136.5C32.1499 143.52 31.6499 148.25 31.6499 158C31.6499 167.31 32.0999 171.78 33.3999 175.5C34.3599 178.25 37.5799 186.57 40.5599 194C45.0099 205.1 45.9699 208.57 45.9699 213.5C45.9699 216.8 45.3299 221.3 44.5499 223.5C43.7599 225.7 42.1399 229.52 40.9399 232C39.7299 234.48 35.9999 241 32.6399 246.5C29.2899 252 25.5299 258.98 24.2899 262C23.0599 265.02 22.0299 269.3 21.9999 271.5C21.9799 274 23.0799 277.74 24.9399 281.5C26.5799 284.8 31.5399 291.55 35.9699 296.5C40.7899 301.9 45.2599 308.1 47.1299 312C50.0999 318.19 50.2299 318.98 49.8699 328.58C49.5199 338.08 49.2499 339.15 45.2899 347.08C42.9799 351.71 36.7899 361.24 31.5399 368.25C26.2899 375.26 20.1599 384.26 17.9099 388.25C15.6599 392.24 13.1399 397.08 12.3199 399C11.4999 400.92 10.1899 404.52 9.41988 407C8.64988 409.48 8.00988 415.33 7.98988 420C7.97988 424.67 8.49988 430.08 9.13988 432C9.78988 433.92 11.5999 437.41 13.1599 439.75C14.7199 442.09 17.9099 445.11 20.2499 446.47C22.5899 447.83 26.9699 449.63 29.9999 450.47C33.4299 451.42 42.2699 452.23 53.4999 452.62C68.2399 453.12 71.7999 453.53 73.1499 454.87C74.2632 455.957 74.5599 457.167 74.0399 458.5C73.4099 460.15 71.9099 460.65 65.3899 461.34C61.0499 461.8 53.2199 461.9 47.9999 461.54C42.7799 461.19 35.3499 460.19 31.4999 459.31C27.6499 458.43 22.0299 456.46 18.9999 454.93C15.9699 453.4 12.2599 450.98 10.7499 449.57C9.23988 448.16 6.92988 445.31 5.61988 443.25C4.30988 441.19 2.45988 436.8 1.49988 433.5C0.179875 428.97 -0.140125 425.17 0.209875 418C0.549875 411.09 1.40988 406.46 3.36988 401C4.85988 396.88 7.77988 390.35 9.85988 386.5C11.9399 382.65 17.2099 374.6 21.5699 368.61C25.9299 362.61 31.0799 355.41 33.0099 352.61C34.9399 349.8 37.8099 344.58 39.3999 341C41.6699 335.87 42.2799 333.02 42.2999 327.5C42.3099 322.34 41.7599 319.45 40.2299 316.5C39.0899 314.3 36.9699 310.92 35.5199 309C34.0699 307.08 31.1899 303.7 29.0999 301.5C27.0199 299.3 23.4299 294.58 21.1299 291C18.8299 287.43 16.2199 282.25 15.3299 279.5C14.3099 276.31 13.9099 272.69 14.2399 269.5C14.5299 266.75 16.0699 261.35 17.6699 257.5C19.2699 253.65 23.7999 245.32 27.7299 239C31.6699 232.68 35.5899 225.25 36.4399 222.5C37.2799 219.75 37.9799 215.59 37.9899 213.25C37.9999 210.51 36.5499 205.53 33.9099 199.25C31.6599 193.89 28.7199 186.35 27.3899 182.5C26.0599 178.65 24.4799 171.45 23.8899 166.5C23.2899 161.55 23.0999 154.57 23.4699 151C23.8299 147.43 25.1899 140.23 26.4899 135C27.7799 129.77 29.8099 123.02 30.9899 120C32.1699 116.98 34.7099 111.35 36.6399 107.5C38.5599 103.65 41.7699 97.8002 43.7599 94.5002C45.7499 91.2002 49.1799 86.0202 51.3899 83.0002C53.5899 79.9802 57.5999 74.8002 60.3099 71.5002C63.0199 68.2002 69.1199 61.6602 73.8699 56.9602C78.6199 52.2602 84.9699 46.3802 87.9999 43.8902C91.0299 41.4002 96.4299 37.3402 99.9999 34.8602C103.57 32.3902 110.32 28.3202 115 25.8202C119.68 23.3202 126.43 20.2602 130 19.0302C133.57 17.8002 140.78 15.6602 146 14.2702C153.54 12.2602 158.08 11.7202 168 11.6202C176.16 11.5402 182.23 11.9902 185.5 12.9302C188.25 13.7102 193.31 15.8502 203 21.0002L205 19.0002C206.1 17.9002 209.14 16.0602 211.75 14.9102C214.36 13.7602 220.32 11.5602 225 10.0202C229.68 8.49018 237.32 6.26018 242 5.07018C246.68 3.88018 254.32 2.31018 259 1.59018C263.68 0.860183 274.48 0.210183 283 0.130183ZM253.5 197.49C263.69 197.74 268.56 198.38 276 200.42C281.23 201.86 287.07 203.81 289 204.76C291.25 205.88 292.5 207.21 292.5 208.5C292.5 210.12 291.73 210.56 288.5 210.8C286.3 210.97 280 209.91 274.5 208.46C269 207 260.45 205.56 255.5 205.27C250.55 204.97 242.9 205.24 238.5 205.86C234.1 206.48 227.35 208.05 223.5 209.34C219.65 210.63 212.68 213.61 208 215.97C203.32 218.33 197.25 221.99 194.5 224.11C191.75 226.22 188.71 227.96 187.75 227.97C186.41 227.99 186 227.18 186 224.5C186 221.55 186.75 220.37 190.75 216.99C193.36 214.78 198.43 211.48 202 209.65C205.57 207.82 211.2 205.38 214.5 204.23C217.8 203.08 223.72 201.26 227.65 200.19C231.59 199.12 236.09 198 237.65 197.7C239.22 197.41 246.35 197.31 253.5 197.49ZM294 242.76C294.97 243.02 295.81 243.86 295.88 244.62C295.94 245.38 295.55 246.9 295 248C294.45 249.1 292.09 251.2 289.75 252.67C287.41 254.13 281.23 257.46 276 260.05C270.77 262.64 263.35 265.73 259.5 266.9C255.65 268.08 249.8 269.37 246.5 269.77C243.2 270.17 232.85 270.42 223.5 270.33C214.12 270.24 205.27 269.68 203.75 269.08C202.24 268.49 201 267.32 201 266.5C201 265.67 202.01 264.32 203.25 263.49C205.03 262.3 209.03 261.98 222.5 261.97C233.3 261.97 242.6 261.41 248 260.44C252.68 259.6 259.65 257.64 263.5 256.09C267.35 254.54 275.39 250.79 281.37 247.78C287.35 244.76 293.04 242.5 294 242.76ZM145.33 247.18C146.61 247.37 148.24 248.93 149.32 251C150.88 254.01 151.07 256.32 150.69 267.5C150.3 278.75 149.81 281.78 147.05 290C145.3 295.23 143.47 300.4 142.99 301.5C142.51 302.6 140.78 306.65 139.15 310.5C137.51 314.35 135.4 319.98 134.44 323C133.32 326.57 132.93 329.9 133.33 332.5C133.76 335.27 135.11 337.67 137.72 340.33C139.8 342.44 143.93 345.59 146.89 347.33C149.85 349.07 152.78 351.28 153.39 352.23C154.24 353.56 154.15 354.34 153 355.57C151.71 356.96 150.95 357.01 147.5 355.94C145.3 355.25 141.7 353.58 139.5 352.23C137.3 350.87 134 348.35 132.16 346.63C130.33 344.91 127.96 341.81 126.91 339.75C125.83 337.62 125 333.95 125 331.25C125 328.64 125.84 324.25 126.86 321.5C127.89 318.75 130.82 311.44 133.37 305.25C135.91 299.06 138.96 290.51 140.14 286.25C141.8 280.2 142.33 275.1 142.55 263C142.7 254.48 142.9 247.36 142.99 247.18C143.08 247 144.14 247 145.33 247.18ZM168 337.05C169.37 337.03 172.19 337.46 174.25 338.01C176.31 338.55 178.45 339.9 179 341C179.55 342.1 180 344.12 180 348L171.25 347.41C166.44 347.09 161.49 346.19 160.25 345.41C158.78 344.49 158.2 343.4 158.58 342.25C158.89 341.29 160.58 339.74 162.33 338.8C164.07 337.86 166.62 337.08 168 337.05ZM174.75 378C177.68 378 183.26 379.81 192.75 383.83C200.31 387.04 207.85 390.14 209.5 390.73C211.15 391.31 214.98 392.28 218 392.88C221.93 393.66 223.89 394.62 224.85 396.23C225.98 398.14 225.98 398.92 224.85 401.1C224.11 402.54 218.32 408.35 212 414.02C205.67 419.69 197.57 426.23 194 428.56C190.42 430.89 184.57 433.83 181 435.1C175.91 436.9 172.44 437.39 165 437.36C157.47 437.32 154.52 436.87 150.75 435.16C148.14 433.97 143.92 430.86 141.38 428.25C138.69 425.48 135.18 420.16 132.95 415.5C130.86 411.1 128.83 405.48 128.45 403C128.02 400.17 128.25 397.02 129.08 394.5C129.8 392.3 131.76 388.98 133.44 387.12C135.13 385.27 137.74 383.13 139.25 382.37C140.76 381.62 143.46 380.99 145.25 380.98C147.04 380.96 150.64 381.86 153.25 382.98C156.91 384.54 158.57 384.77 160.5 384C161.87 383.45 164.69 381.87 166.75 380.5C169.29 378.8 171.87 377.99 174.75 378ZM353.42 407.97C354.01 407.96 356.98 410.95 360 414.63C363.02 418.3 367.76 423.37 370.53 425.9C373.3 428.43 378.47 432.42 382.03 434.76C385.59 437.1 392.47 440.7 397.32 442.76C405.35 446.17 406.11 446.72 405.82 449C405.53 451.27 405.09 451.49 401 451.38C398.21 451.3 393.64 449.94 389 447.82C384.87 445.93 378.8 442.57 375.5 440.35C372.2 438.12 366.61 433.65 363.08 430.4C359.55 427.16 355.38 422.48 353.82 420C352.25 417.52 350.9 414.11 350.82 412.42C350.74 410.72 351.04 409.03 351.5 408.67C351.96 408.3 352.82 407.99 353.42 407.97Z" fill="#131313"/>
<path d="M164.75 390.08C166.26 389.03 168.62 387.68 170 387.09C171.37 386.5 174.3 386.23 176.5 386.48C178.7 386.73 184.32 388.47 189 390.34C193.68 392.21 199.98 394.87 208.5 398.73L204.5 399.37C202.3 399.72 198.02 400.45 195 400.98C191.98 401.52 183.43 402.69 176 403.6C167.71 404.61 159.41 405.02 154.5 404.67C150.1 404.35 144.36 403.4 141.75 402.55C139.14 401.7 136.74 400.44 136.41 399.75C136.09 399.06 136.65 396.74 137.66 394.6C138.67 392.45 140.4 390.08 141.5 389.34C142.6 388.59 144.4 388 145.5 388.03C146.6 388.05 149.3 388.94 151.5 390C153.7 391.06 156.96 391.95 158.75 391.97C160.54 391.98 163.24 391.14 164.75 390.08Z" fill="#CE31EE"/>
<path d="M168 411.35C180.57 411.25 188.6 410.65 196.5 409.22C202.55 408.13 207.95 407.18 208.5 407.13C209.05 407.07 207.48 408.95 205 411.3C202.52 413.64 198.48 417.19 196 419.16C193.52 421.14 189.48 423.79 187 425.04C184.52 426.3 179.8 427.91 176.5 428.63C173.2 429.34 168.59 429.95 166.25 429.96C163.91 429.98 159.64 429.35 156.75 428.55C152.96 427.5 150.46 425.97 147.75 423.05C145.69 420.82 142.88 416.75 141.5 414C140.13 411.25 139.11 408.78 139.25 408.52C139.39 408.25 141.97 408.81 145 409.77C149.44 411.17 153.88 411.47 168 411.35Z" fill="#CE31EE"/>
</svg>